<svg width="250" height="63" viewBox="0 0 250 63" fill="none" xmlns="http://www.w3.org/2000/svg">
<path d="M70.9756 40.7452L78.0156 33.1932C80.4476 35.7105 82.8583 37.5665 85.2476 38.7612C87.6796 39.9132 90.2609 40.4892 92.9916 40.4892C95.2103 40.4892 96.9596 40.0839 98.2396 39.2732C99.5196 38.4625 100.16 37.3319 100.16 35.8812C100.16 34.8999 99.7329 34.0892 98.8796 33.4492C98.0689 32.8092 96.6823 32.2332 94.7196 31.7212L85.3756 29.2892C82.3036 28.4785 79.9356 27.0919 78.2716 25.1292C76.6503 23.1665 75.8396 20.7772 75.8396 17.9612C75.8396 13.5239 77.4183 10.0252 80.5756 7.46519C83.7756 4.86252 88.0849 3.56119 93.5036 3.56119C97.2156 3.56119 100.821 4.24385 104.32 5.60919C107.861 6.97452 110.848 8.87319 113.28 11.3052L106.496 18.9852C104.32 16.8519 102.08 15.2732 99.7756 14.2492C97.5143 13.2252 95.1036 12.7132 92.5436 12.7132C90.5809 12.7132 89.0236 13.0759 87.8716 13.8012C86.7196 14.5265 86.1436 15.4865 86.1436 16.6812C86.1436 17.6199 86.5063 18.3879 87.2316 18.9852C87.9996 19.5825 89.2369 20.0945 90.9436 20.5212L99.7116 22.6332C103.338 23.4865 106.112 24.9159 108.032 26.9212C109.952 28.9265 110.912 31.4012 110.912 34.3452C110.912 36.6492 110.464 38.7612 109.568 40.6812C108.672 42.5585 107.413 44.1585 105.792 45.4812C104.17 46.8039 102.186 47.8279 99.8396 48.5532C97.4929 49.2785 94.9116 49.6412 92.0956 49.6412C87.9143 49.6412 84.0103 48.8732 80.3836 47.3372C76.7569 45.8012 73.6209 43.6039 70.9756 40.7452Z" fill="#121212"/>
<path d="M109.047 62.5052L119.095 15.1452H129.143L128.823 16.6172C129.975 15.9772 131.169 15.5079 132.407 15.2092C133.644 14.8679 134.924 14.6972 136.247 14.6972C138.38 14.6972 140.364 15.1025 142.199 15.9132C144.033 16.7239 145.612 17.8332 146.935 19.2412C148.3 20.6492 149.367 22.3132 150.135 24.2332C150.945 26.1532 151.351 28.2225 151.351 30.4412C151.351 33.0865 150.839 35.5612 149.815 37.8652C148.833 40.1692 147.489 42.1745 145.783 43.8812C144.119 45.5879 142.113 46.9532 139.767 47.9772C137.463 48.9585 135.009 49.4492 132.407 49.4492C130.529 49.4492 128.759 49.1719 127.095 48.6172C125.473 48.0199 124.023 47.1879 122.743 46.1212L119.223 62.5052H109.047ZM133.431 23.4652C132.236 23.4652 131.105 23.6572 130.039 24.0412C128.972 24.3825 127.991 24.9159 127.095 25.6412L124.599 37.4172C125.409 38.3985 126.455 39.1879 127.735 39.7852C129.057 40.3399 130.487 40.6172 132.023 40.6172C134.668 40.6172 136.887 39.7212 138.679 37.9292C140.513 36.0945 141.431 33.8972 141.431 31.3372C141.431 29.1185 140.663 27.2625 139.127 25.7692C137.633 24.2332 135.735 23.4652 133.431 23.4652Z" fill="#121212"/>
<path d="M166.056 12.0092C164.648 12.0092 163.453 11.5399 162.472 10.6012C161.533 9.61986 161.064 8.42519 161.064 7.01719C161.064 5.31052 161.682 3.81719 162.92 2.53719C164.2 1.25719 165.672 0.617188 167.336 0.617188C168.744 0.617188 169.917 1.10785 170.856 2.08919C171.837 3.02785 172.328 4.20119 172.328 5.60919C172.328 7.31586 171.688 8.80919 170.408 10.0892C169.17 11.3692 167.72 12.0092 166.056 12.0092ZM169.896 15.1452L162.728 49.0012H152.552L159.72 15.1452H169.896Z" fill="#121212"/>
<path d="M189.149 1.96119L179.165 49.0012H168.989L178.525 4.20119L189.149 1.96119Z" fill="#121212"/>
<path d="M205.587 1.96119L195.603 49.0012H185.427L194.963 4.20119L205.587 1.96119Z" fill="#121212"/>
<path d="M215.368 12.0092C213.96 12.0092 212.765 11.5399 211.784 10.6012C210.845 9.61986 210.376 8.42519 210.376 7.01719C210.376 5.31052 210.995 3.81719 212.232 2.53719C213.512 1.25719 214.984 0.617188 216.648 0.617188C218.056 0.617188 219.229 1.10785 220.168 2.08919C221.149 3.02785 221.64 4.20119 221.64 5.60919C221.64 7.31586 221 8.80919 219.72 10.0892C218.483 11.3692 217.032 12.0092 215.368 12.0092ZM219.208 15.1452L212.04 49.0012H201.864L209.032 15.1452H219.208Z" fill="#121212"/>
<path d="M225.342 38.1212L228.414 23.7852H221.694L223.486 15.1452H230.206L232.062 6.44119L242.686 4.20119L240.318 15.1452H249.598L247.806 23.7852H238.526L235.774 36.5212C235.475 38.0572 235.624 39.1665 236.222 39.8492C236.862 40.5319 238.035 40.8732 239.742 40.8732C240.467 40.8732 241.15 40.8305 241.79 40.7452C242.472 40.6599 243.198 40.5319 243.966 40.3612L242.174 48.6812C241.363 48.8519 240.318 49.0012 239.038 49.1292C237.8 49.2999 236.648 49.3852 235.582 49.3852C231.528 49.3852 228.606 48.4039 226.814 46.4412C225.064 44.4785 224.574 41.7052 225.342 38.1212Z" fill="#121212"/>
<path d="M0 56L13.5 41.5H39C51.7025 41.5 62 31.2025 62 18.5V5H0V56Z" fill="url(#paint0_linear_777_3937)"/>
<rect x="28" y="14" width="3" height="7" rx="1.5" fill="#121212"/>
<rect x="46" y="14" width="3" height="7" rx="1.5" fill="#121212"/>
<path d="M36 19V19C37.4421 21.8842 41.5579 21.8842 43 19V19" stroke="#121212" stroke-linecap="round"/>
<defs>
<linearGradient id="paint0_linear_777_3937" x1="31" y1="5" x2="31" y2="49" gradientUnits="userSpaceOnUse">
<stop stop-color="#FFB13D"/>
<stop offset="1" stop-color="#FF3D83"/>
</linearGradient>
</defs>
</svg>
